<svg id="Layer_1" data-name="Layer 1" xmlns="http://www.w3.org/2000/svg" viewBox="0 0 386 340.27"><defs><style>.cls-1{fill:#344a99;}.cls-2{fill:#809acf;}.cls-3{fill:#42b4e7;}</style></defs><path class="cls-1" d="M7063.72,7224.93l-27.41-27.4a40.07,40.07,0,0,1,56.67-56.67l14.75,14.78,3.83,3.83,3.23,3.23,1.44,1.44,12.82,12.82,2.76,2.76,1.88,1.88,6.13,6.13a1.33,1.33,0,0,0,.22.2l17,17a40.16,40.16,0,0,1,0,56.63,34.09,34.09,0,0,1-4.34,3.76h24.54a58.24,58.24,0,0,0-7.4-73.22l-17.17-17.17-5.91-5.91-2.12-2.12-2.54-2.54-12.8-12.8-1.66-1.66-3-3-4.07-4.08-3.72-3.71-11-11a58.16,58.16,0,0,0-82.25,82.25l42.79,42.82a63.8,63.8,0,0,1-3.13-19.91A61.66,61.66,0,0,1,7063.72,7224.93Z" transform="translate(-7006.5 -7029.37)"/><path class="cls-2" d="M7375.53,7128.53a58.21,58.21,0,0,0-82.26,0l-4.59,4.59-14,14-4.66,4.64-12.82,12.82-4.64,4.64-12.36,12.36v0l-.17.15-10.82,10.82a58.32,58.32,0,0,0-7.67,72.75h24.23a40.16,40.16,0,0,1-3.74-59.93l10.82-10.82.17-.17,12.58-12.6,4.64-4.64,12.82-12.8,4.64-4.67,13.78-13.77,4.59-4.59a40.06,40.06,0,0,1,56.66,56.66l-27.31,27.3a65.35,65.35,0,0,1,.49,7.94,63.59,63.59,0,0,1-3.37,20.54l43-43a58.33,58.33,0,0,0,0-82.26Z" transform="translate(-7006.5 -7029.37)"/><path class="cls-1" d="M7067.17,7029.37a36.4,36.4,0,1,0,36.41,36.4A36.46,36.46,0,0,0,7067.17,7029.37Zm0,54.69a18.29,18.29,0,1,1,18.3-18.29A18.34,18.34,0,0,1,7067.17,7084.06Z" transform="translate(-7006.5 -7029.37)"/><path class="cls-3" d="M7199.51,7029.37a36.4,36.4,0,1,0,36.4,36.4A36.4,36.4,0,0,0,7199.51,7029.37Zm0,54.69a18.29,18.29,0,1,1,18.29-18.29A18.34,18.34,0,0,1,7199.51,7084.06Z" transform="translate(-7006.5 -7029.37)"/><path class="cls-2" d="M7331.91,7029.37a36.4,36.4,0,1,0,36.34,36.4A36.43,36.43,0,0,0,7331.91,7029.37Zm0,54.69a18.29,18.29,0,1,1,18.29-18.29A18.34,18.34,0,0,1,7331.91,7084.06Z" transform="translate(-7006.5 -7029.37)"/><path class="cls-3" d="M7166.29,7141a42.45,42.45,0,0,1,29.68-11.8c1.07,0,1.93.05,2.73.1a9.77,9.77,0,0,0,1.71,0c.78-.05,1.64-.1,2.69-.1a42.41,42.41,0,0,1,29.67,11.8l19.1,18.44,12.82-12.8-19.34-18.69a60.5,60.5,0,0,0-42.25-16.85c-1.32,0-2.47,0-3.57.1s-2.24-.1-3.56-.1a60.49,60.49,0,0,0-42.25,16.85L7134,7147l12.82,12.82Z" transform="translate(-7006.5 -7029.37)"/><path class="cls-3" d="M7311.71,7192l-23.33-22.52-12.82,12.82,23.57,22.74a38.95,38.95,0,0,1,.2,56.22l-.2.2a41.4,41.4,0,0,1-9.35,6.69,43.17,43.17,0,0,1-14.88,4.59H7135.74v-.1c-.17.05-.34.07-.49.1h-10.7a42.52,42.52,0,0,1-15.26-4.79,42,42,0,0,1-9.18-6.69c-.12-.12-.27-.24-.42-.37l-3.12-3.12a38.9,38.9,0,0,1,3.37-52.73l24.37-23.52-12.8-12.82-24.15,23.3a56.86,56.86,0,0,0-17.56,39c0,.73-.05,1.49-.05,2.22a56.83,56.83,0,0,0,13.36,36.71,51.92,51.92,0,0,0,4.25,4.54,7.78,7.78,0,0,0,1.54,1.2l0,0a58.32,58.32,0,0,0,9.45,7.18,1.34,1.34,0,0,0,.37-.12c.93.54,1.86,1.05,2.81,1.54.56.32,1.15.59,1.73.86a1.8,1.8,0,0,0,.34.17l.32.14a.24.24,0,0,0,.12.05c.49.22,1,.44,1.44.64a14.84,14.84,0,0,0,1.52.63c.41.17.83.34,1.24.49.59.22,1.18.44,1.76.64l1.08.34c1.1.36,2.2.68,3.32.95.73.2,1.46.39,2.2.54h0c.91.22,1.83.39,2.74.53s1.88.3,2.83.4c.27,0,.54.09.83.12a6.44,6.44,0,0,0,1,.05h11.72v.09c.27,0,.54,0,.78-.09h123.07c.95.17,1.93.34,2.88.46v-.46h12.95a6.12,6.12,0,0,0,1-.05c.3,0,.56-.08.83-.12.93-.1,1.86-.25,2.79-.4a8,8,0,0,0,1.17-.22c.71-.12,1.39-.26,2.08-.41.24,0,.48-.1.73-.17.73-.17,1.46-.37,2.17-.59a.49.49,0,0,0,.2-.05l.24-.07c.83-.22,1.64-.46,2.44-.73.2-.08.42-.12.61-.2.66-.22,1.3-.46,2-.71l.36-.14c.59-.25,1.18-.47,1.74-.74a1,1,0,0,0,.27-.09c.56-.25,1.12-.49,1.68-.76.76-.34,1.49-.68,2.23-1.07h0c.9-.47,1.78-1,2.66-1.47a57.29,57.29,0,0,0,10.45-7.77,6.68,6.68,0,0,0,.69-.61c.29-.29.58-.56.83-.85a56.81,56.81,0,0,0,16.78-40.4c0-.58,0-1.19,0-1.78A56.8,56.8,0,0,0,7311.71,7192Z" transform="translate(-7006.5 -7029.37)"/><path class="cls-1" d="M7046.31,7332.28h-13.05v36.13H7020v-36.13h-13.05v-11.92h39.4Z" transform="translate(-7006.5 -7029.37)"/><path class="cls-1" d="M7094.9,7346.09v22.32h-12.77v-20.84c0-4.27-1.5-6.45-4.83-6.45-3.86,0-6.27,2.75-6.27,7.5v19.79h-12.77V7318H7071v15.83a15.76,15.76,0,0,1,9.89-3.54C7089.43,7330.25,7094.9,7336.49,7094.9,7346.09Z" transform="translate(-7006.5 -7029.37)"/><path class="cls-1" d="M7148.85,7331.31v37.07H7139l-1.1-2.63a17.52,17.52,0,0,1-11.18,3.88c-11.33,0-19.43-8.27-19.43-19.79s8.1-19.65,19.43-19.65a17.59,17.59,0,0,1,11.32,4l1.31-2.86Zm-12.14,18.56a8.3,8.3,0,1,0-8.29,8.45A8.14,8.14,0,0,0,7136.71,7349.87Z" transform="translate(-7006.5 -7029.37)"/><path class="cls-1" d="M7163.77,7331.34h12.77v37.07h-12.77Zm.1-15.47h12.57v10.84h-12.57Z" transform="translate(-7006.5 -7029.37)"/><path class="cls-1" d="M7243.73,7368.41l-3.75-27.67-12.75,27.75h-3.9l-12.74-27.74-3.7,27.66h-13.42l7.28-48.05H7214l11.32,26.15,11.39-26.15h13.22l7.19,48.05Z" transform="translate(-7006.5 -7029.37)"/><path class="cls-1" d="M7270.5,7320.36h13.41v48.05H7270.5Z" transform="translate(-7006.5 -7029.37)"/><path class="cls-1" d="M7323.13,7369.63c-14.63,0-25.55-10.82-25.55-25.2s10.92-25.28,25.55-25.28c12.58,0,22.34,8.31,24.29,20.5H7334a11.36,11.36,0,0,0-10.86-8.13c-6.81,0-11.79,5.47-11.79,12.91s5,12.8,11.79,12.8c5.34,0,9.53-3.47,10.87-8.81h13.54c-1.83,12.64-11.64,21.21-24.43,21.21Z" transform="translate(-7006.5 -7029.37)"/><path class="cls-1" d="M7392.09,7356.93v11.48h-31.32v-48.05h30.74v11.44H7374v7.08h15.78v10.86H7374v7.19Z" transform="translate(-7006.5 -7029.37)"/></svg>